<svg width="195" height="56" viewBox="0 0 195 56" fill="none" xmlns="http://www.w3.org/2000/svg">
<rect x="2.5" y="2.5" width="190" height="51" stroke="black" stroke-width="5"/>
<path d="M23.084 28H22.76C22.208 28 21.656 27.94 21.104 27.82C20.576 27.676 20.096 27.448 19.664 27.136C19.256 26.8 18.92 26.368 18.656 25.84C18.392 25.312 18.26 24.664 18.26 23.896V22.96C18.26 22.096 18.404 21.388 18.692 20.836C18.98 20.284 19.352 19.852 19.808 19.54C20.264 19.228 20.78 19.012 21.356 18.892C21.932 18.772 22.508 18.712 23.084 18.712V28ZM26.144 27.712H26.468C27.02 27.712 27.56 27.784 28.088 27.928C28.64 28.048 29.12 28.276 29.528 28.612C29.96 28.924 30.308 29.344 30.572 29.872C30.836 30.4 30.968 31.048 30.968 31.816V32.752C30.968 33.616 30.824 34.324 30.536 34.876C30.248 35.428 29.876 35.86 29.42 36.172C28.964 36.484 28.448 36.7 27.872 36.82C27.296 36.94 26.72 37 26.144 37V27.712ZM30.824 21.88C30.824 22.648 30.68 23.26 30.392 23.716C30.104 24.172 29.756 24.532 29.348 24.796C28.94 25.06 28.508 25.24 28.052 25.336C27.596 25.408 27.2 25.444 26.864 25.444C26.576 25.444 26.336 25.42 26.144 25.372V23.716C26.144 23.212 26.024 22.84 25.784 22.6C25.544 22.36 25.244 22.24 24.884 22.24C24.428 22.24 24.044 22.384 23.732 22.672C23.66 22.48 23.612 22.312 23.588 22.168C23.588 22 23.588 21.82 23.588 21.628C23.588 21.34 23.636 21.016 23.732 20.656C23.828 20.272 24.008 19.924 24.272 19.612C24.536 19.276 24.896 19 25.352 18.784C25.808 18.544 26.384 18.424 27.08 18.424C27.728 18.424 28.28 18.532 28.736 18.748C29.216 18.94 29.6 19.204 29.888 19.54C30.2 19.876 30.428 20.248 30.572 20.656C30.74 21.064 30.824 21.472 30.824 21.88ZM18.44 33.544C18.44 32.8 18.584 32.2 18.872 31.744C19.16 31.264 19.508 30.892 19.916 30.628C20.324 30.364 20.756 30.196 21.212 30.124C21.668 30.028 22.064 29.98 22.4 29.98C22.688 29.98 22.928 30.004 23.12 30.052V31.708C23.12 32.212 23.24 32.584 23.48 32.824C23.72 33.064 24.02 33.184 24.38 33.184C24.812 33.184 25.196 33.04 25.532 32.752C25.604 32.944 25.64 33.124 25.64 33.292C25.664 33.436 25.676 33.604 25.676 33.796C25.676 34.084 25.616 34.42 25.496 34.804C25.4 35.164 25.208 35.512 24.92 35.848C24.656 36.16 24.296 36.436 23.84 36.676C23.408 36.892 22.856 37 22.184 37C21.536 37 20.972 36.904 20.492 36.712C20.036 36.496 19.652 36.22 19.34 35.884C19.052 35.548 18.824 35.176 18.656 34.768C18.512 34.36 18.44 33.952 18.44 33.544ZM53.4267 40.348C53.4267 40.9 53.3547 41.44 53.2107 41.968C53.0907 42.52 52.8747 43.012 52.5627 43.444C52.2507 43.876 51.8307 44.224 51.3027 44.488C50.7747 44.752 50.1267 44.884 49.3587 44.884H34.3827C34.3827 44.356 34.4667 43.816 34.6347 43.264C34.8267 42.736 35.1147 42.256 35.4987 41.824C35.9067 41.392 36.4347 41.032 37.0827 40.744C37.7547 40.48 38.5707 40.348 39.5307 40.348H53.4267ZM61.6856 28H61.3616C60.8096 28 60.2576 27.94 59.7056 27.82C59.1776 27.676 58.6976 27.448 58.2656 27.136C57.8576 26.8 57.5216 26.368 57.2576 25.84C56.9936 25.312 56.8616 24.664 56.8616 23.896V22.96C56.8616 22.096 57.0056 21.388 57.2936 20.836C57.5816 20.284 57.9536 19.852 58.4096 19.54C58.8656 19.228 59.3816 19.012 59.9576 18.892C60.5336 18.772 61.1096 18.712 61.6856 18.712V28ZM64.7456 27.712H65.0696C65.6216 27.712 66.1616 27.784 66.6896 27.928C67.2416 28.048 67.7216 28.276 68.1296 28.612C68.5616 28.924 68.9096 29.344 69.1736 29.872C69.4376 30.4 69.5696 31.048 69.5696 31.816V32.752C69.5696 33.616 69.4256 34.324 69.1376 34.876C68.8496 35.428 68.4776 35.86 68.0216 36.172C67.5656 36.484 67.0496 36.7 66.4736 36.82C65.8976 36.94 65.3216 37 64.7456 37V27.712ZM69.4256 21.88C69.4256 22.648 69.2816 23.26 68.9936 23.716C68.7056 24.172 68.3576 24.532 67.9496 24.796C67.5416 25.06 67.1096 25.24 66.6536 25.336C66.1976 25.408 65.8016 25.444 65.4656 25.444C65.1776 25.444 64.9376 25.42 64.7456 25.372V23.716C64.7456 23.212 64.6256 22.84 64.3856 22.6C64.1456 22.36 63.8456 22.24 63.4856 22.24C63.0296 22.24 62.6456 22.384 62.3336 22.672C62.2616 22.48 62.2136 22.312 62.1896 22.168C62.1896 22 62.1896 21.82 62.1896 21.628C62.1896 21.34 62.2376 21.016 62.3336 20.656C62.4296 20.272 62.6096 19.924 62.8736 19.612C63.1376 19.276 63.4976 19 63.9536 18.784C64.4096 18.544 64.9856 18.424 65.6816 18.424C66.3296 18.424 66.8816 18.532 67.3376 18.748C67.8176 18.94 68.2016 19.204 68.4896 19.54C68.8016 19.876 69.0296 20.248 69.1736 20.656C69.3416 21.064 69.4256 21.472 69.4256 21.88ZM57.0416 33.544C57.0416 32.8 57.1856 32.2 57.4736 31.744C57.7616 31.264 58.1096 30.892 58.5176 30.628C58.9256 30.364 59.3576 30.196 59.8136 30.124C60.2696 30.028 60.6656 29.98 61.0016 29.98C61.2896 29.98 61.5296 30.004 61.7216 30.052V31.708C61.7216 32.212 61.8416 32.584 62.0816 32.824C62.3216 33.064 62.6216 33.184 62.9816 33.184C63.4136 33.184 63.7976 33.04 64.1336 32.752C64.2056 32.944 64.2416 33.124 64.2416 33.292C64.2656 33.436 64.2776 33.604 64.2776 33.796C64.2776 34.084 64.2176 34.42 64.0976 34.804C64.0016 35.164 63.8096 35.512 63.5216 35.848C63.2576 36.16 62.8976 36.436 62.4416 36.676C62.0096 36.892 61.4576 37 60.7856 37C60.1376 37 59.5736 36.904 59.0936 36.712C58.6376 36.496 58.2536 36.22 57.9416 35.884C57.6536 35.548 57.4256 35.176 57.2576 34.768C57.1136 34.36 57.0416 33.952 57.0416 33.544ZM72.4442 10.864H72.8402C74.0882 10.864 75.1322 11.2 75.9722 11.872C76.8362 12.544 77.2682 13.612 77.2682 15.076V37H77.0522C76.5002 37 75.9482 36.928 75.3962 36.784C74.8682 36.64 74.3762 36.412 73.9202 36.1C73.4882 35.764 73.1282 35.344 72.8402 34.84C72.5762 34.312 72.4442 33.664 72.4442 32.896V10.864ZM80.315 13.168C80.315 12.352 80.603 11.668 81.179 11.116C81.755 10.54 82.439 10.252 83.231 10.252C84.023 10.252 84.695 10.54 85.247 11.116C85.823 11.668 86.111 12.352 86.111 13.168C86.111 13.984 85.823 14.668 85.247 15.22C84.695 15.772 84.023 16.048 83.231 16.048C82.439 16.048 81.755 15.772 81.179 15.22C80.603 14.668 80.315 13.984 80.315 13.168ZM80.855 18.712H81.251C82.499 18.712 83.543 19.048 84.383 19.72C85.247 20.392 85.679 21.46 85.679 22.924V37H85.463C84.911 37 84.359 36.928 83.807 36.784C83.279 36.64 82.787 36.412 82.331 36.1C81.899 35.764 81.539 35.344 81.251 34.84C80.987 34.312 80.855 33.664 80.855 32.896V18.712ZM93.4224 36.928C92.1264 36.928 91.1184 36.544 90.3984 35.776C89.7024 34.984 89.3544 33.832 89.3544 32.32V22.96C89.3544 21.544 89.7144 20.488 90.4344 19.792C91.1784 19.072 92.2104 18.712 93.5304 18.712C93.6504 18.712 93.7584 18.724 93.8544 18.748C93.9504 18.748 94.0584 18.748 94.1784 18.748V31.312C94.1784 31.6 94.1904 31.876 94.2144 32.14C94.2624 32.404 94.3344 32.644 94.4304 32.86C94.5504 33.052 94.7064 33.22 94.8984 33.364C95.1144 33.484 95.4024 33.544 95.7624 33.544C95.9544 33.544 96.1464 33.52 96.3384 33.472C96.5544 33.4 96.7464 33.292 96.9144 33.148C97.0104 33.34 97.0704 33.532 97.0944 33.724C97.1184 33.892 97.1304 34.072 97.1304 34.264C97.1304 35.032 96.7824 35.668 96.0864 36.172C95.3904 36.676 94.5024 36.928 93.4224 36.928ZM105.806 22.852C105.806 22.108 105.926 21.484 106.166 20.98C106.43 20.452 106.766 20.02 107.174 19.684C107.606 19.348 108.086 19.108 108.614 18.964C109.166 18.796 109.73 18.712 110.306 18.712H110.63V28.756C110.63 30.7 110.222 32.08 109.406 32.896C108.59 33.712 107.39 34.12 105.806 34.12V22.852ZM101.81 36.928C99.0024 36.928 97.5984 35.392 97.5984 32.32V22.96C97.5984 21.544 97.9584 20.488 98.6784 19.792C99.4224 19.072 100.454 18.712 101.774 18.712C101.894 18.712 102.002 18.724 102.098 18.748C102.194 18.748 102.302 18.748 102.422 18.748V31.312C102.422 31.6 102.434 31.876 102.458 32.14C102.506 32.404 102.578 32.644 102.674 32.86C102.794 33.052 102.95 33.22 103.142 33.364C103.358 33.484 103.646 33.544 104.006 33.544C104.198 33.544 104.402 33.52 104.618 33.472C104.834 33.4 105.014 33.292 105.158 33.148C105.23 33.316 105.278 33.496 105.302 33.688C105.35 33.88 105.374 34.048 105.374 34.192C105.374 35.08 105.026 35.764 104.33 36.244C103.658 36.7 102.818 36.928 101.81 36.928ZM113.678 13.168C113.678 12.352 113.966 11.668 114.542 11.116C115.118 10.54 115.802 10.252 116.594 10.252C117.386 10.252 118.058 10.54 118.61 11.116C119.186 11.668 119.474 12.352 119.474 13.168C119.474 13.984 119.186 14.668 118.61 15.22C118.058 15.772 117.386 16.048 116.594 16.048C115.802 16.048 115.118 15.772 114.542 15.22C113.966 14.668 113.678 13.984 113.678 13.168ZM114.218 18.712H114.614C115.862 18.712 116.906 19.048 117.746 19.72C118.61 20.392 119.042 21.46 119.042 22.924V37H118.826C118.274 37 117.722 36.928 117.17 36.784C116.642 36.64 116.15 36.412 115.694 36.1C115.262 35.764 114.902 35.344 114.614 34.84C114.35 34.312 114.218 33.664 114.218 32.896V18.712ZM130.926 24.328C130.926 24.04 130.902 23.764 130.854 23.5C130.83 23.236 130.758 23.008 130.638 22.816C130.542 22.6 130.386 22.432 130.17 22.312C129.978 22.168 129.702 22.096 129.342 22.096C129.15 22.096 128.946 22.132 128.73 22.204C128.538 22.252 128.358 22.348 128.19 22.492C128.094 22.3 128.034 22.12 128.01 21.952C127.986 21.76 127.974 21.568 127.974 21.376C127.974 20.608 128.322 19.972 129.018 19.468C129.714 18.964 130.602 18.712 131.682 18.712C132.978 18.712 133.974 19.108 134.67 19.9C135.39 20.668 135.75 21.808 135.75 23.32V37H135.534C134.094 37 132.966 36.664 132.15 35.992C131.334 35.296 130.926 34.192 130.926 32.68V24.328ZM122.718 18.712H123.114C124.362 18.712 125.406 19.048 126.246 19.72C127.11 20.392 127.542 21.46 127.542 22.924V37H127.326C126.774 37 126.222 36.928 125.67 36.784C125.142 36.64 124.65 36.412 124.194 36.1C123.762 35.764 123.402 35.344 123.114 34.84C122.85 34.312 122.718 33.664 122.718 32.896V18.712ZM143.459 28H143.135C142.583 28 142.031 27.94 141.479 27.82C140.951 27.676 140.471 27.448 140.039 27.136C139.631 26.8 139.295 26.368 139.031 25.84C138.767 25.312 138.635 24.664 138.635 23.896V22.96C138.635 22.096 138.779 21.388 139.067 20.836C139.355 20.284 139.727 19.852 140.183 19.54C140.639 19.228 141.155 19.012 141.731 18.892C142.307 18.772 142.883 18.712 143.459 18.712V28ZM146.519 27.712H146.843C147.395 27.712 147.935 27.784 148.463 27.928C149.015 28.048 149.495 28.276 149.903 28.612C150.335 28.924 150.683 29.344 150.947 29.872C151.211 30.4 151.343 31.048 151.343 31.816V32.752C151.343 33.616 151.199 34.324 150.911 34.876C150.623 35.428 150.251 35.86 149.795 36.172C149.339 36.484 148.823 36.7 148.247 36.82C147.671 36.94 147.095 37 146.519 37V27.712ZM151.199 21.88C151.199 22.648 151.055 23.26 150.767 23.716C150.479 24.172 150.131 24.532 149.723 24.796C149.315 25.06 148.883 25.24 148.427 25.336C147.971 25.408 147.575 25.444 147.239 25.444C146.951 25.444 146.711 25.42 146.519 25.372V23.716C146.519 23.212 146.399 22.84 146.159 22.6C145.919 22.36 145.619 22.24 145.259 22.24C144.803 22.24 144.419 22.384 144.107 22.672C144.035 22.48 143.987 22.312 143.963 22.168C143.963 22 143.963 21.82 143.963 21.628C143.963 21.34 144.011 21.016 144.107 20.656C144.203 20.272 144.383 19.924 144.647 19.612C144.911 19.276 145.271 19 145.727 18.784C146.183 18.544 146.759 18.424 147.455 18.424C148.103 18.424 148.655 18.532 149.111 18.748C149.591 18.94 149.975 19.204 150.263 19.54C150.575 19.876 150.803 20.248 150.947 20.656C151.115 21.064 151.199 21.472 151.199 21.88ZM138.815 33.544C138.815 32.8 138.959 32.2 139.247 31.744C139.535 31.264 139.883 30.892 140.291 30.628C140.699 30.364 141.131 30.196 141.587 30.124C142.043 30.028 142.439 29.98 142.775 29.98C143.063 29.98 143.303 30.004 143.495 30.052V31.708C143.495 32.212 143.615 32.584 143.855 32.824C144.095 33.064 144.395 33.184 144.755 33.184C145.187 33.184 145.571 33.04 145.907 32.752C145.979 32.944 146.015 33.124 146.015 33.292C146.039 33.436 146.051 33.604 146.051 33.796C146.051 34.084 145.991 34.42 145.871 34.804C145.775 35.164 145.583 35.512 145.295 35.848C145.031 36.16 144.671 36.436 144.215 36.676C143.783 36.892 143.231 37 142.559 37C141.911 37 141.347 36.904 140.867 36.712C140.411 36.496 140.027 36.22 139.715 35.884C139.427 35.548 139.199 35.176 139.031 34.768C138.887 34.36 138.815 33.952 138.815 33.544ZM160.518 27.1C161.19 27.1 161.85 27.196 162.498 27.388C163.146 27.556 163.71 27.832 164.19 28.216C164.67 28.6 165.054 29.104 165.342 29.728C165.654 30.328 165.81 31.06 165.81 31.924V37.252C165.21 37.252 164.598 37.156 163.974 36.964C163.35 36.748 162.774 36.448 162.246 36.064C161.742 35.68 161.322 35.212 160.986 34.66C160.674 34.084 160.518 33.436 160.518 32.716V27.1ZM161.31 17.992C161.622 17.992 162.054 18.052 162.606 18.172C163.158 18.268 163.686 18.472 164.19 18.784C164.718 19.096 165.174 19.528 165.558 20.08C165.942 20.632 166.134 21.352 166.134 22.24C166.134 22.816 166.062 23.368 165.918 23.896C165.798 24.424 165.606 24.892 165.342 25.3C165.078 25.684 164.718 25.996 164.262 26.236C163.83 26.476 163.314 26.596 162.714 26.596C161.73 26.596 161.01 26.296 160.554 25.696C160.122 25.072 159.906 24.352 159.906 23.536V23.14C160.002 23.26 160.074 23.356 160.122 23.428C160.194 23.476 160.326 23.5 160.518 23.5C160.854 23.5 161.07 23.344 161.166 23.032C161.262 22.696 161.31 22.204 161.31 21.556V17.992ZM154.218 10.864H154.614C155.862 10.864 156.906 11.2 157.746 11.872C158.61 12.544 159.042 13.612 159.042 15.076V37C158.946 37 158.862 37 158.79 37C158.718 37.024 158.634 37.036 158.538 37.036C158.01 37.036 157.482 36.964 156.954 36.82C156.45 36.676 155.994 36.436 155.586 36.1C155.178 35.764 154.842 35.332 154.578 34.804C154.338 34.252 154.218 33.58 154.218 32.788V10.864ZM169.19 13.168C169.19 12.352 169.478 11.668 170.054 11.116C170.63 10.54 171.314 10.252 172.106 10.252C172.898 10.252 173.57 10.54 174.122 11.116C174.698 11.668 174.986 12.352 174.986 13.168C174.986 13.984 174.698 14.668 174.122 15.22C173.57 15.772 172.898 16.048 172.106 16.048C171.314 16.048 170.63 15.772 170.054 15.22C169.478 14.668 169.19 13.984 169.19 13.168ZM169.73 18.712H170.126C171.374 18.712 172.418 19.048 173.258 19.72C174.122 20.392 174.554 21.46 174.554 22.924V37H174.338C173.786 37 173.234 36.928 172.682 36.784C172.154 36.64 171.662 36.412 171.206 36.1C170.774 35.764 170.414 35.344 170.126 34.84C169.862 34.312 169.73 33.664 169.73 32.896V18.712Z" fill="black"/>
</svg>
